<?xml version="1.0" encoding="UTF-8"?>
<svg xmlns="http://www.w3.org/2000/svg" width="50.000mm" height="62.000mm" viewBox="0 0 50.000 62.000">
<rect width="50.000" height="62.000" fill="white"/>
<g fill="black" shape-rendering="crispEdges">
<rect x="5.000" y="5.000" width="5.000" height="5.000"/>
<rect x="10.000" y="5.000" width="5.000" height="5.000"/>
<rect x="15.000" y="5.000" width="5.000" height="5.000"/>
<rect x="20.000" y="5.000" width="5.000" height="5.000"/>
<rect x="25.000" y="5.000" width="5.000" height="5.000"/>
<rect x="30.000" y="5.000" width="5.000" height="5.000"/>
<rect x="35.000" y="5.000" width="5.000" height="5.000"/>
<rect x="40.000" y="5.000" width="5.000" height="5.000"/>
<rect x="5.000" y="10.000" width="5.000" height="5.000"/>
<rect x="20.000" y="10.000" width="5.000" height="5.000"/>
<rect x="35.000" y="10.000" width="5.000" height="5.000"/>
<rect x="40.000" y="10.000" width="5.000" height="5.000"/>
<rect x="5.000" y="15.000" width="5.000" height="5.000"/>
<rect x="10.000" y="15.000" width="5.000" height="5.000"/>
<rect x="20.000" y="15.000" width="5.000" height="5.000"/>
<rect x="40.000" y="15.000" width="5.000" height="5.000"/>
<rect x="5.000" y="20.000" width="5.000" height="5.000"/>
<rect x="30.000" y="20.000" width="5.000" height="5.000"/>
<rect x="35.000" y="20.000" width="5.000" height="5.000"/>
<rect x="40.000" y="20.000" width="5.000" height="5.000"/>
<rect x="5.000" y="25.000" width="5.000" height="5.000"/>
<rect x="10.000" y="25.000" width="5.000" height="5.000"/>
<rect x="25.000" y="25.000" width="5.000" height="5.000"/>
<rect x="30.000" y="25.000" width="5.000" height="5.000"/>
<rect x="35.000" y="25.000" width="5.000" height="5.000"/>
<rect x="40.000" y="25.000" width="5.000" height="5.000"/>
<rect x="5.000" y="30.000" width="5.000" height="5.000"/>
<rect x="15.000" y="30.000" width="5.000" height="5.000"/>
<rect x="30.000" y="30.000" width="5.000" height="5.000"/>
<rect x="40.000" y="30.000" width="5.000" height="5.000"/>
<rect x="5.000" y="35.000" width="5.000" height="5.000"/>
<rect x="10.000" y="35.000" width="5.000" height="5.000"/>
<rect x="15.000" y="35.000" width="5.000" height="5.000"/>
<rect x="25.000" y="35.000" width="5.000" height="5.000"/>
<rect x="30.000" y="35.000" width="5.000" height="5.000"/>
<rect x="40.000" y="35.000" width="5.000" height="5.000"/>
<rect x="5.000" y="40.000" width="5.000" height="5.000"/>
<rect x="10.000" y="40.000" width="5.000" height="5.000"/>
<rect x="15.000" y="40.000" width="5.000" height="5.000"/>
<rect x="20.000" y="40.000" width="5.000" height="5.000"/>
<rect x="25.000" y="40.000" width="5.000" height="5.000"/>
<rect x="30.000" y="40.000" width="5.000" height="5.000"/>
<rect x="35.000" y="40.000" width="5.000" height="5.000"/>
<rect x="40.000" y="40.000" width="5.000" height="5.000"/>
</g>
<text x="25.000" y="57" text-anchor="middle" font-family="DejaVu Sans, sans-serif" font-size="4" font-weight="bold">RIGHT UMI  |  tag36h11 ID 1</text>
</svg>
